<svg xmlns="http://www.w3.org/2000/svg" viewBox="0 0 128 128" role="img" aria-label="Smiling black brain logo">
  <g fill="none" stroke="#111" stroke-linecap="round" stroke-linejoin="round">
    <path d="M43 24c-10 0-18 8-18 18 0 2 .3 4 .9 5.8A16 16 0 0 0 18 62c0 8.8 7.2 16 16 16h1c1.2 10.8 10.4 19 21.5 19h15c11.6 0 21-9.4 21-21v-2.5A19 19 0 0 0 106 55c0-10.5-8.5-19-19-19h-2c-2.8-7-9.7-12-17.8-12h-3.2a17 17 0 0 0-21 0z" stroke-width="6"/>
    <path d="M50 31v14M39 43h11M66 30v16M78 35v12M86 47h-8M53 58h16M76 60h13M48 75c5 7 12 10 20 10s15-3 20-10" stroke-width="5"/>
    <circle cx="50" cy="67" r="2.8" fill="#111" stroke="none"/>
    <circle cx="78" cy="67" r="2.8" fill="#111" stroke="none"/>
  </g>
</svg>
